<?xml version="1.0" encoding="UTF-8"?>
<!-- SPDX-License-Identifier: LGPL-2.1-or-later — Lapidary_Diagram: the crown
     view of a round brilliant inside its index-gear tick ring, i.e. the thing
     the command actually draws. -->
<svg xmlns="http://www.w3.org/2000/svg" width="64" height="64" viewBox="0 0 64 64">
  <g stroke="#5d6d7e" stroke-width="1.6" stroke-linecap="round">
    <line x1="32" y1="3" x2="32" y2="8"/>
    <line x1="46.5" y1="6.9" x2="44" y2="11.2"/>
    <line x1="57.1" y1="17.5" x2="52.8" y2="20"/>
    <line x1="61" y1="32" x2="56" y2="32"/>
    <line x1="57.1" y1="46.5" x2="52.8" y2="44"/>
    <line x1="46.5" y1="57.1" x2="44" y2="52.8"/>
    <line x1="32" y1="61" x2="32" y2="56"/>
    <line x1="17.5" y1="57.1" x2="20" y2="52.8"/>
    <line x1="6.9" y1="46.5" x2="11.2" y2="44"/>
    <line x1="3" y1="32" x2="8" y2="32"/>
    <line x1="6.9" y1="17.5" x2="11.2" y2="20"/>
    <line x1="17.5" y1="6.9" x2="20" y2="11.2"/>
  </g>
  <g stroke="#1a5276" stroke-linejoin="round" fill="#aed6f1">
    <polygon stroke-width="2.6" points="32,10 47.6,16.4 54,32 47.6,47.6 32,54
                                        16.4,47.6 10,32 16.4,16.4"/>
    <g stroke-width="1.7" fill="#eaf4fb">
      <polygon points="32,20 40.5,23.5 44,32 40.5,40.5 32,44 23.5,40.5 20,32
                       23.5,23.5"/>
    </g>
    <g stroke-width="1.5" fill="none">
      <line x1="32" y1="10" x2="32" y2="20"/>
      <line x1="47.6" y1="16.4" x2="40.5" y2="23.5"/>
      <line x1="54" y1="32" x2="44" y2="32"/>
      <line x1="47.6" y1="47.6" x2="40.5" y2="40.5"/>
      <line x1="32" y1="54" x2="32" y2="44"/>
      <line x1="16.4" y1="47.6" x2="23.5" y2="40.5"/>
      <line x1="10" y1="32" x2="20" y2="32"/>
      <line x1="16.4" y1="16.4" x2="23.5" y2="23.5"/>
    </g>
  </g>
</svg>
